<svg xmlns="http://www.w3.org/2000/svg" viewBox="0 0 128 128" width="512" height="512">
  <defs>
    <linearGradient id="g" x1="0" y1="0" x2="1" y2="1">
      <stop offset="0" stop-color="#7c3aed"/>
      <stop offset="1" stop-color="#ec4899"/>
    </linearGradient>
  </defs>
  <rect width="128" height="128" rx="28" fill="#15151c"/>
  <path fill="url(#g)" d="M64 16c-13.5 0-24.6 9.8-26.2 22.6C26.8 41 18 51 18 63c0 7.6 3.5 14.3 9 18.8-.8 2.4-1.3 5-1.3 7.7 0 11.4 9.4 20.7 21 20.7 5.6 0 10.8-2.2 14.6-5.7h5.4c3.8 3.5 9 5.7 14.6 5.7 11.6 0 21-9.3 21-20.7 0-2.7-.5-5.3-1.3-7.7 5.5-4.5 9-11.2 9-18.8 0-12-8.8-22-19.8-24.4C88.6 25.8 77.5 16 64 16z"/>
  <circle cx="64" cy="62" r="9" fill="#fff" opacity="0.92"/>
</svg>
