<svg width="1024" height="1024" viewBox="0 0 1024 1024" xmlns="http://www.w3.org/2000/svg">
  <defs>
    <linearGradient id="stone" x1="10%" y1="0%" x2="28%" y2="100%">
      <stop offset="0%"   stop-color="#FCFBF8"/>
      <stop offset="48%"  stop-color="#F2F0EA"/>
      <stop offset="100%" stop-color="#DFDCD3"/>
    </linearGradient>
    <filter id="grain2" x="0%" y="0%" width="100%" height="100%">
      <feTurbulence type="fractalNoise" baseFrequency="0.9" numOctaves="4" seed="3"/>
      <feColorMatrix type="saturate" values="0"/>
      <feComponentTransfer><feFuncA type="linear" slope="0.06"/></feComponentTransfer>
    </filter>
    <linearGradient id="groove" gradientUnits="userSpaceOnUse" x1="0" y1="290" x2="0" y2="740">
      <stop offset="0%"   stop-color="#24242A"/>
      <stop offset="55%"  stop-color="#2E2E36"/>
      <stop offset="100%" stop-color="#43434E"/>
    </linearGradient>
    <radialGradient id="lift" cx="42%" cy="30%" r="78%">
      <stop offset="0%"   stop-color="#FFFFFF" stop-opacity="0.34"/>
      <stop offset="62%"  stop-color="#FFFFFF" stop-opacity="0"/>
    </radialGradient>
    <radialGradient id="vign4" cx="50%" cy="44%" r="74%">
      <stop offset="0%"   stop-color="#75705F" stop-opacity="0"/>
      <stop offset="58%"  stop-color="#75705F" stop-opacity="0"/>
      <stop offset="100%" stop-color="#75705F" stop-opacity="0.17"/>
    </radialGradient>
    <filter id="ao" x="-40%" y="-40%" width="180%" height="180%">
      <feGaussianBlur stdDeviation="10"/></filter>
    <filter id="wall2" x="-40%" y="-40%" width="180%" height="180%">
      <feGaussianBlur stdDeviation="3.5"/></filter>
    <mask id="groovemask">
      <rect width="1024" height="1024" fill="#000000"/>
      <path d="M282.0 709.0 L282.0 299.0 L385.5 299.0 L512.0 517.5 L638.5 299.0 L742.0 299.0 L742.0 709.0 L646.0 709.0 L646.0 477.6 L512.0 709.0 L378.0 477.6 L378.0 709.0 Z" fill="#FFFFFF" />
    </mask>
  </defs>

  <rect width="1024" height="1024" fill="url(#stone)"/>
  <rect width="1024" height="1024" fill="url(#lift)"/>
  <rect width="1024" height="1024" filter="url(#grain2)" fill="#8B877C" opacity="0.30"/>

  <g filter="url(#wall2)" opacity="0.75" transform="translate(0,9)">
    <path d="M282.0 709.0 L282.0 299.0 L385.5 299.0 L512.0 517.5 L638.5 299.0 L742.0 299.0 L742.0 709.0 L646.0 709.0 L646.0 477.6 L512.0 709.0 L378.0 477.6 L378.0 709.0 Z" fill="#FFFFFF" />
  </g>
  <g filter="url(#ao)" opacity="0.13" transform="translate(0,4)">
    <path d="M282.0 709.0 L282.0 299.0 L385.5 299.0 L512.0 517.5 L638.5 299.0 L742.0 299.0 L742.0 709.0 L646.0 709.0 L646.0 477.6 L512.0 709.0 L378.0 477.6 L378.0 709.0 Z" fill="#5C5849" />
  </g>

  <g mask="url(#groovemask)">
    <rect width="1024" height="1024" fill="url(#groove)"/>
    <g filter="url(#wall2)" opacity="0.8" transform="translate(0,-9)">
      <path d="M282.0 709.0 L282.0 299.0 L385.5 299.0 L512.0 517.5 L638.5 299.0 L742.0 299.0 L742.0 709.0 L646.0 709.0 L646.0 477.6 L512.0 709.0 L378.0 477.6 L378.0 709.0 Z" fill="#131318" />
    </g>
  </g>

  <g mask="url(#groovemask)">
    <path d="M330.0 665.0 L330.0 299.0 L512.0 613.2 L694.0 299.0 L694.0 665.0" fill="none" stroke="#F3F1EA" stroke-width="28.0" stroke-linecap="round" stroke-linejoin="round" />
    <path d="M330.0 665.0 L330.0 299.0 L512.0 613.2 L694.0 299.0 L694.0 665.0" fill="none" stroke="#B9B5A9" stroke-width="21" stroke-linecap="round" stroke-linejoin="round" transform="translate(0,3)" opacity="0.55"/>
  </g>
  <rect width="1024" height="1024" fill="url(#vign4)"/>
</svg>
